<svg width="48" height="48" viewBox="0 0 48 48" fill="none" xmlns="http://www.w3.org/2000/svg">
  <!-- Stage 6: Full bloom tulip - 90 days -->
  <path d="M24 44 L24 28" stroke="#A8B09A" stroke-width="2.5" stroke-linecap="round"/>
  <path d="M24 38 C16 36 10 38 10 30 C17 30 24 34 24 38" fill="#A8B09A"/>
  <path d="M24 38 C32 36 38 38 38 30 C31 30 24 34 24 38" fill="#A8B09A"/>
  <!-- Full bloom petals -->
  <ellipse cx="24" cy="18" rx="4" ry="6" fill="#9B8EA8"/>
  <path d="M14 16 C14 10 18 6 24 6 C24 12 20 18 14 16Z" fill="#C49A8C"/>
  <path d="M34 16 C34 10 30 6 24 6 C24 12 28 18 34 16Z" fill="#D4A99C"/>
  <path d="M18 22 C14 18 14 12 18 8 C22 12 22 18 18 22Z" fill="#C49A8C" opacity="0.9"/>
  <path d="M30 22 C34 18 34 12 30 8 C26 12 26 18 30 22Z" fill="#D4A99C" opacity="0.9"/>
  <circle cx="24" cy="16" r="3" fill="#9B8EA8" opacity="0.6"/>
</svg>
