<svg width="48" height="48" viewBox="0 0 48 48" fill="none" xmlns="http://www.w3.org/2000/svg">
  <!-- Stage 4: Closed tulip - 30 days -->
  <path d="M24 44 L24 26" stroke="#A8B09A" stroke-width="2" stroke-linecap="round"/>
  <path d="M24 36 C17 34 12 36 12 29 C18 29 24 33 24 36" fill="#A8B09A"/>
  <path d="M24 36 C31 34 36 36 36 29 C30 29 24 33 24 36" fill="#A8B09A"/>
  <!-- Closed tulip flower -->
  <path d="M24 8 C24 8 18 14 18 20 C18 24 21 26 24 26 C27 26 30 24 30 20 C30 14 24 8 24 8Z" fill="#C49A8C"/>
  <path d="M24 8 C24 8 21 14 21 19 C21 22 22 24 24 24" fill="#B8897D"/>
</svg>
